<mxfile host="app.diagrams.net" agent="Mozilla/5.0 (Windows NT 10.0; Win64; x64) AppleWebKit/537.36 (KHTML, like Gecko) Chrome/128.0.0.0 Safari/537.36" version="24.7.16">
  <diagram id="L5iDdjGfkMEysrDEncEV" name="Page-1">
    <mxGraphModel dx="1996" dy="1153" grid="0" gridSize="10" guides="1" tooltips="1" connect="1" arrows="1" fold="1" page="0" pageScale="1" pageWidth="827" pageHeight="1169" math="0" shadow="0">
      <root>
        <mxCell id="0" />
        <mxCell id="1" parent="0" />
        <mxCell id="JG9UAi3Gi1sgmX3tN6v6-1" value="Surveyor" style="swimlane;whiteSpace=wrap;html=1;" vertex="1" parent="1">
          <mxGeometry x="-147" y="-130" width="370" height="540" as="geometry" />
        </mxCell>
        <mxCell id="JG9UAi3Gi1sgmX3tN6v6-2" style="edgeStyle=none;curved=1;rounded=0;orthogonalLoop=1;jettySize=auto;html=1;fontSize=12;startSize=8;endSize=8;" edge="1" parent="JG9UAi3Gi1sgmX3tN6v6-1" source="JG9UAi3Gi1sgmX3tN6v6-3" target="JG9UAi3Gi1sgmX3tN6v6-7">
          <mxGeometry relative="1" as="geometry" />
        </mxCell>
        <mxCell id="JG9UAi3Gi1sgmX3tN6v6-3" value="View Upload Form In Detailed Page" style="html=1;align=center;verticalAlign=top;rounded=1;absoluteArcSize=1;arcSize=10;dashed=0;whiteSpace=wrap;" vertex="1" parent="JG9UAi3Gi1sgmX3tN6v6-1">
          <mxGeometry x="114" y="49" width="162" height="40" as="geometry" />
        </mxCell>
        <mxCell id="JG9UAi3Gi1sgmX3tN6v6-4" style="edgeStyle=none;curved=1;rounded=0;orthogonalLoop=1;jettySize=auto;html=1;entryX=0.5;entryY=0;entryDx=0;entryDy=0;fontSize=12;startSize=8;endSize=8;" edge="1" parent="JG9UAi3Gi1sgmX3tN6v6-1">
          <mxGeometry relative="1" as="geometry">
            <mxPoint x="132" y="202" as="targetPoint" />
          </mxGeometry>
        </mxCell>
        <mxCell id="JG9UAi3Gi1sgmX3tN6v6-5" style="edgeStyle=none;curved=1;rounded=0;orthogonalLoop=1;jettySize=auto;html=1;entryX=0.5;entryY=0;entryDx=0;entryDy=0;fontSize=12;startSize=8;endSize=8;" edge="1" parent="JG9UAi3Gi1sgmX3tN6v6-1">
          <mxGeometry relative="1" as="geometry">
            <Array as="points">
              <mxPoint x="328" y="155" />
            </Array>
            <mxPoint x="148.94736842105272" y="218.94736842105272" as="sourcePoint" />
          </mxGeometry>
        </mxCell>
        <mxCell id="JG9UAi3Gi1sgmX3tN6v6-6" value="No" style="edgeLabel;html=1;align=center;verticalAlign=middle;resizable=0;points=[];fontSize=12;" vertex="1" connectable="0" parent="JG9UAi3Gi1sgmX3tN6v6-5">
          <mxGeometry x="-0.4746" y="24" relative="1" as="geometry">
            <mxPoint as="offset" />
          </mxGeometry>
        </mxCell>
        <mxCell id="JG9UAi3Gi1sgmX3tN6v6-7" value="Click On Upload Form" style="html=1;align=center;verticalAlign=top;rounded=1;absoluteArcSize=1;arcSize=10;dashed=0;whiteSpace=wrap;" vertex="1" parent="JG9UAi3Gi1sgmX3tN6v6-1">
          <mxGeometry x="124" y="172" width="140" height="40" as="geometry" />
        </mxCell>
        <mxCell id="JG9UAi3Gi1sgmX3tN6v6-13" style="edgeStyle=none;curved=1;rounded=0;orthogonalLoop=1;jettySize=auto;html=1;entryX=0.5;entryY=0;entryDx=0;entryDy=0;fontSize=12;startSize=8;endSize=8;" edge="1" parent="JG9UAi3Gi1sgmX3tN6v6-1" source="JG9UAi3Gi1sgmX3tN6v6-8" target="JG9UAi3Gi1sgmX3tN6v6-12">
          <mxGeometry relative="1" as="geometry" />
        </mxCell>
        <mxCell id="JG9UAi3Gi1sgmX3tN6v6-14" value="File uploaded represents Image" style="edgeLabel;html=1;align=center;verticalAlign=middle;resizable=0;points=[];fontSize=12;" vertex="1" connectable="0" parent="JG9UAi3Gi1sgmX3tN6v6-13">
          <mxGeometry x="-0.0534" relative="1" as="geometry">
            <mxPoint as="offset" />
          </mxGeometry>
        </mxCell>
        <mxCell id="JG9UAi3Gi1sgmX3tN6v6-8" value="Select One Or More Images To Upload" style="html=1;align=center;verticalAlign=top;rounded=1;absoluteArcSize=1;arcSize=10;dashed=0;whiteSpace=wrap;" vertex="1" parent="JG9UAi3Gi1sgmX3tN6v6-1">
          <mxGeometry x="124" y="257" width="140" height="40" as="geometry" />
        </mxCell>
        <mxCell id="JG9UAi3Gi1sgmX3tN6v6-9" style="edgeStyle=none;curved=1;rounded=0;orthogonalLoop=1;jettySize=auto;html=1;fontSize=12;startSize=8;endSize=8;exitX=0.5;exitY=1;exitDx=0;exitDy=0;" edge="1" parent="JG9UAi3Gi1sgmX3tN6v6-1" source="JG9UAi3Gi1sgmX3tN6v6-7" target="JG9UAi3Gi1sgmX3tN6v6-8">
          <mxGeometry relative="1" as="geometry">
            <mxPoint x="458" y="173" as="targetPoint" />
          </mxGeometry>
        </mxCell>
        <mxCell id="JG9UAi3Gi1sgmX3tN6v6-15" style="edgeStyle=none;curved=1;rounded=0;orthogonalLoop=1;jettySize=auto;html=1;entryX=1;entryY=0.5;entryDx=0;entryDy=0;fontSize=12;startSize=8;endSize=8;" edge="1" parent="JG9UAi3Gi1sgmX3tN6v6-1" source="JG9UAi3Gi1sgmX3tN6v6-12" target="JG9UAi3Gi1sgmX3tN6v6-8">
          <mxGeometry relative="1" as="geometry">
            <Array as="points">
              <mxPoint x="454" y="349" />
            </Array>
          </mxGeometry>
        </mxCell>
        <mxCell id="JG9UAi3Gi1sgmX3tN6v6-16" value="No" style="edgeLabel;html=1;align=center;verticalAlign=middle;resizable=0;points=[];fontSize=12;" vertex="1" connectable="0" parent="JG9UAi3Gi1sgmX3tN6v6-15">
          <mxGeometry x="0.5521" y="22" relative="1" as="geometry">
            <mxPoint as="offset" />
          </mxGeometry>
        </mxCell>
        <mxCell id="JG9UAi3Gi1sgmX3tN6v6-18" style="edgeStyle=none;curved=1;rounded=0;orthogonalLoop=1;jettySize=auto;html=1;entryX=0.5;entryY=0;entryDx=0;entryDy=0;fontSize=12;startSize=8;endSize=8;" edge="1" parent="JG9UAi3Gi1sgmX3tN6v6-1" source="JG9UAi3Gi1sgmX3tN6v6-12" target="JG9UAi3Gi1sgmX3tN6v6-17">
          <mxGeometry relative="1" as="geometry" />
        </mxCell>
        <mxCell id="JG9UAi3Gi1sgmX3tN6v6-12" value="" style="rhombus;whiteSpace=wrap;html=1;" vertex="1" parent="JG9UAi3Gi1sgmX3tN6v6-1">
          <mxGeometry x="171" y="348" width="48" height="48" as="geometry" />
        </mxCell>
        <mxCell id="JG9UAi3Gi1sgmX3tN6v6-17" value="Add Image To Image Stack" style="html=1;align=center;verticalAlign=top;rounded=1;absoluteArcSize=1;arcSize=10;dashed=0;whiteSpace=wrap;" vertex="1" parent="JG9UAi3Gi1sgmX3tN6v6-1">
          <mxGeometry x="125" y="433" width="140" height="40" as="geometry" />
        </mxCell>
        <mxCell id="JG9UAi3Gi1sgmX3tN6v6-10" style="edgeStyle=none;curved=1;rounded=0;orthogonalLoop=1;jettySize=auto;html=1;entryX=0;entryY=0.5;entryDx=0;entryDy=0;fontSize=12;startSize=8;endSize=8;" edge="1" parent="1" source="JG9UAi3Gi1sgmX3tN6v6-11" target="JG9UAi3Gi1sgmX3tN6v6-3">
          <mxGeometry relative="1" as="geometry" />
        </mxCell>
        <mxCell id="JG9UAi3Gi1sgmX3tN6v6-11" value="" style="ellipse;fillColor=strokeColor;html=1;" vertex="1" parent="1">
          <mxGeometry x="-315" y="-71" width="19" height="19" as="geometry" />
        </mxCell>
        <mxCell id="JG9UAi3Gi1sgmX3tN6v6-19" value="" style="ellipse;html=1;shape=endState;fillColor=strokeColor;" vertex="1" parent="1">
          <mxGeometry x="44" y="448" width="23" height="23" as="geometry" />
        </mxCell>
        <mxCell id="JG9UAi3Gi1sgmX3tN6v6-20" style="edgeStyle=none;curved=1;rounded=0;orthogonalLoop=1;jettySize=auto;html=1;entryX=0.5;entryY=0;entryDx=0;entryDy=0;fontSize=12;startSize=8;endSize=8;" edge="1" parent="1" source="JG9UAi3Gi1sgmX3tN6v6-17" target="JG9UAi3Gi1sgmX3tN6v6-19">
          <mxGeometry relative="1" as="geometry" />
        </mxCell>
      </root>
    </mxGraphModel>
  </diagram>
</mxfile>
